<?xml version="1.0" encoding="UTF-8"?>
<svg width="468px" height="94px" viewBox="0 0 468 94" version="1.1" xmlns="http://www.w3.org/2000/svg" xmlns:xlink="http://www.w3.org/1999/xlink">
    <!-- Generator: Sketch 57 (83077) - https://sketch.com -->
    <title>Group 2</title>
    <desc>Created with Sketch.</desc>
    <g id="Page-1" stroke="none" stroke-width="1" fill="none" fill-rule="evenodd">
        <g id="Group-2" fill="#FFFFFF" fill-rule="nonzero">
            <path d="M146.720688,53.2906856 C143.709856,58.4488908 139.862149,61 132.27825,61 C123.245752,61 117,54.7875474 117,43.9165477 C117,33.0455477 122.96644,27 133.281861,27 C140.308199,27 144.601954,30.1616852 147,35.4308084 L138.858538,39.3689182 C137.96644,36.3181508 136.572005,34.3776176 133.058836,34.3776176 C128.430544,34.3776176 125.587511,38.0379047 125.587511,44.1383832 C125.587511,50.1290003 128.152294,53.6223824 133.281861,53.6223824 C135.902931,53.6223824 138.245752,52.1255206 139.4161,49.1307402 L146.720688,53.2906856 Z" id="Fill-1"></path>
            <path d="M151.781998,61 L160.049899,61 L160.049899,35.3330177 L151.781998,35.3330177 L151.781998,61 Z M155.91648,23 C158.821045,23 161,24.500362 161,27.6121846 C161,30.6118505 158.821045,32.1672328 155.91648,32.1672328 C153.235344,32.1672328 151,30.6118505 151,27.6121846 C151,24.500362 153.235344,23 155.91648,23 L155.91648,23 Z" id="Fill-3"></path>
            <path d="M185,59.2628212 C182.659712,60.4408592 179.874918,61 176.533165,61 C171.296691,61 167.732155,58.5905713 167.732155,52.3162389 L167.732155,40.8314364 L164,40.8314364 L164,34.4429284 L167.78732,34.4429284 L167.78732,28.9528875 L176.031371,28 L176.031371,34.4429284 L183.663299,34.4429284 L183.663299,40.8314364 L175.976206,40.8314364 L175.976206,50.4104639 C175.976206,53.1005305 177.034958,53.9413765 179.04001,53.9413765 C180.65466,53.9413765 182.103814,53.3246138 183.607073,52.2607516 L185,59.2628212 Z" id="Fill-5"></path>
            <path d="M198.144256,46.1162341 C199.549182,51.2212116 199.830809,54.6238097 199.830809,54.6238097 L200.055683,54.6238097 C200.055683,54.6238097 200.33624,51.1639615 201.854673,46.1162341 L205.228851,35 L214,35 L203.485544,63.5850652 C200.449748,71.8085506 196.795013,73 191.172098,73 C189.597981,73 187.742236,72.7159102 186.280557,72.3767303 L187.574116,64.8899343 C188.529295,65.513204 189.767172,65.8534636 191.003977,65.8534636 C193.252715,65.8534636 194.714395,65.0022743 195.61389,62.6777057 L186,35 L195.10846,35 L198.144256,46.1162341 Z" id="Fill-6"></path>
            <polygon id="Fill-7" points="226.513718 28 226.513718 53.7162257 239 53.7162257 239 61 218 61 218 28"></polygon>
            <path d="M254.133257,47.8335056 L261.42268,47.8335056 L260.532434,45.3131021 C258.584489,39.8219944 257.916804,35.6753864 257.916804,35.6753864 L257.694243,35.6753864 C257.694243,35.6753864 256.860166,39.8774817 255.023503,45.2565478 L254.133257,47.8335056 Z M263.870858,54.8366423 L251.7953,54.8366423 L249.737134,61 L241,61 L252.852997,28 L263.036782,28 L275,61 L266.041364,61 L263.870858,54.8366423 Z" id="Fill-8"></path>
            <path d="M288.369477,53.8848214 L293.613684,53.8848214 C296.069481,53.8848214 297.520007,53.2125718 297.520007,50.6911012 C297.520007,48.6177972 296.069481,47.6094224 293.613684,47.6094224 L288.369477,47.6094224 L288.369477,53.8848214 Z M292.554216,41.5581064 C294.841051,41.5581064 296.292639,40.7183275 296.292639,38.4209402 C296.292639,35.956024 294.897372,35.1151781 292.386316,35.1151781 L288.369477,35.1151781 L288.369477,41.5581064 L292.554216,41.5581064 Z M298.747374,44.1916186 C303.656844,44.9204229 306,48.1141433 306,52.036668 C306,57.4146674 302.374218,61 294.339478,61 L280,61 L280,28 L294.451056,28 C301.09053,28 304.605796,31.1382332 304.605796,36.2921489 C304.605796,40.3822026 302.317898,43.0146478 298.747374,43.9675353 L298.747374,44.1916186 Z" id="Fill-9"></path>
            <path d="M338.961614,41.5581064 C341.266158,41.5581064 343.289189,40.7183275 343.289189,37.9727737 C343.289189,35.8994697 342.108552,35.1151781 339.917469,35.1151781 L336.095117,35.1151781 L334.97121,41.5581064 L338.961614,41.5581064 Z M332.779058,53.8848214 L338.062489,53.8848214 C340.703134,53.8848214 342.558115,52.8753798 342.558115,50.2984219 C342.558115,48.6177972 341.65899,47.6094224 339.186395,47.6094224 L333.902964,47.6094224 L332.779058,53.8848214 Z M344.300705,44.1361313 C349.133503,44.8649355 350.876094,47.89006 350.876094,51.0827135 C350.876094,57.8062796 345.537002,61 337.443805,61 L323,61 L328.789724,28 L342.502455,28 C349.302625,28 352,31.0816788 352,35.3958158 C352,40.3811355 348.51589,43.3518398 344.357436,43.910981 L344.300705,44.1361313 Z" id="Fill-10"></path>
            <path d="M372.481965,44.5222071 C372.537797,44.1882192 372.592575,43.7980366 372.592575,43.3516592 C372.592575,41.5152563 371.983693,40.0679757 369.827322,40.0679757 C367.614065,40.0679757 366.287797,42.1280975 365.678915,44.5222071 L372.481965,44.5222071 Z M371.928915,51.4256825 L379.783288,53.3182802 C378.289525,58.550756 374.75,61 367.559287,61 C360.203185,61 356,56.657098 356,49.8098175 C356,39.6226586 362.747219,34 370.159152,34 C377.571085,34 381,38.5093659 381,43.3516592 C381,45.4128413 380.612338,47.415708 379.893898,48.8640488 L364.794033,48.8640488 C364.130372,52.2601219 365.512472,54.6542316 368.222948,54.6542316 C370.10332,54.6542316 371.375864,53.8738663 371.928915,51.4256825 L371.928915,51.4256825 Z" id="Fill-11"></path>
            <path d="M404.065078,44.2241112 C400.41736,42.226697 395.442148,42.7983182 394.50311,48.3319598 L392.347115,61 L384,61 L388.477271,34.6380444 L395.773759,34.6380444 L395.608479,41.885463 C397.376017,36.4637549 401.632214,33.0405477 406,34.2392136 L404.065078,44.2241112 Z" id="Fill-12"></path>
            <path d="M414.965545,51.8527283 C414.741839,53.0948044 414.853692,54.166969 416.531489,54.166969 C417.034295,54.166969 417.538167,54.0551283 418.209285,53.8852163 L416.867048,60.2655084 C415.469417,60.7171725 413.845949,61 412.448318,61 C407.35847,61 405.345114,58.4029318 406.184545,53.3765567 L411.553493,23 L420,23 L414.965545,51.8527283 Z" id="Fill-13"></path>
            <path d="M431.848087,22 C434.791729,22 437,23.5286508 437,26.6980678 C437,29.7542914 434.791729,31.3400779 431.848087,31.3400779 C429.129801,31.3400779 426.866539,29.7542914 426.866539,26.6980678 C426.866539,23.5286508 429.129801,22 431.848087,22 L431.848087,22 Z M432.074521,51.8302511 C431.848087,53.0753792 431.961304,54.1501782 433.660637,54.1501782 C434.169575,54.1501782 434.679591,54.0380628 435.358893,53.8677336 L433.99921,60.2637034 C432.584537,60.7164773 430.942351,61 429.527678,61 C424.374687,61 422.337859,58.3965503 423.186447,53.3578239 L426.52581,34.5655526 L435.075311,34.5655526 L432.074521,51.8302511 Z" id="Fill-14"></path>
            <path d="M464.702207,51.8493903 C464.474773,53.0919195 464.58849,54.164475 466.294245,54.164475 C466.80543,54.164475 467.317698,54.0525935 468,53.8826201 L466.635396,60.2652403 C465.214475,60.7170687 463.563954,61 462.143033,61 C456.968369,61 454.921463,58.4019842 455.774881,53.3737747 L457.195802,45.23978 C457.594353,42.8676787 457.139485,40.9474062 454.523994,40.9474062 C452.476006,40.9474062 450.770251,42.7557972 450.030549,46.8781974 L447.585092,60.7170687 L439,60.7170687 L443.60608,34.6207268 L451.111401,34.6207268 L451.225119,39.9307913 C452.874557,36.0902462 455.205214,34 459.583859,34 C463.735071,34 466.350562,36.6550323 466.350562,40.665551 C466.350562,41.5681329 466.294245,42.1899354 466.180528,42.8676787 L464.702207,51.8493903 Z" id="Fill-15"></path>
            <polygon id="Fill-16" points="51.516112 66 36 57.2225444 36.2953602 17.9887857 67.9678908 0 83 8.5339327 82.9385567 48.0175946"></polygon>
            <polygon id="Fill-17" points="37 13.3653115 32.0697582 16.253388 31.9411798 33.8167106 14.4418777 44.0692211 14.2089611 76 0 67.7089794 0.288774318 28.1413669 31.2540234 10"></polygon>
            <polygon id="Fill-18" points="32.3083421 38 32.1478353 59.759509 50.8711721 70.5443251 64 62.8940751 63.9809925 76.0634942 33.1985217 94 18 85.2444311 18.2893347 46.1085013"></polygon>
        </g>
    </g>
</svg>