<?xml version="1.0" encoding="UTF-8"?>
<svg width="257px" height="239px" viewBox="0 0 257 239" version="1.1" xmlns="http://www.w3.org/2000/svg" xmlns:xlink="http://www.w3.org/1999/xlink">
    <!-- Generator: Sketch 57 (83077) - https://sketch.com -->
    <title>Group 5</title>
    <desc>Created with Sketch.</desc>
    <g id="Page-1" stroke="none" stroke-width="1" fill="none" fill-rule="evenodd">
        <g id="logo" transform="translate(-58.000000, -35.000000)" fill="#FFFFFF">
            <g id="Group-5" transform="translate(58.000000, 35.000000)">
                <path d="M217.69026,150.727821 C217.061155,150.909645 216.344847,150.966073 215.566251,150.966073 C212.134202,150.966073 210.938279,149.498945 210.938279,143.636705 C210.938279,137.855971 212.165345,136.294797 216.164213,136.294797 C217.839751,136.294797 219.65855,136.658444 221.060023,137.228993 L221.533409,133.028243 C219.988675,132.394996 217.839751,132 215.896376,132 C209.001133,132 206.017554,135.63647 206.017554,143.693133 C206.017554,151.567971 208.671008,155.354916 215.690827,155.354916 C217.958097,155.354916 220.374858,154.847064 221.894677,154.11977 L221.894677,142.727587 L217.69026,142.727587 L217.69026,150.727821 Z M199.62684,143.661784 C199.62684,152.16987 197.00453,155.323567 190.64496,155.323567 C184.403737,155.323567 181.650623,151.988046 181.650623,143.661784 C181.650623,135.335521 184.285391,132.037619 190.64496,132.037619 C197.00453,132.037619 199.62684,135.335521 199.62684,143.661784 L199.62684,143.661784 Z M194.706116,143.661784 C194.706116,137.680417 193.690827,136.413922 190.64496,136.413922 C187.624009,136.413922 186.577576,137.711766 186.577576,143.661784 C186.577576,149.64315 187.624009,150.972343 190.669875,150.972343 C193.690827,150.972343 194.706116,149.611801 194.706116,143.661784 L194.706116,143.661784 Z M77.7797282,155.323567 C79.5424689,155.323567 81.4796149,154.872143 82.7938845,154.213817 L82.3204983,150.2137 C81.211778,150.727821 79.9286523,151.06012 78.4711212,151.06012 C74.7899207,151.06012 73.506795,149.404899 73.506795,143.511309 C73.506795,137.981366 74.7276331,136.382574 78.3776897,136.382574 C79.8414496,136.382574 81.2366931,136.689793 82.2519819,137.078519 L82.7378256,132.902848 C81.5979615,132.394996 79.6296716,132 78.0537939,132 C71.5073613,132 68.5860702,135.780675 68.5860702,143.511309 C68.5860702,151.724716 71.5385051,155.323567 77.7797282,155.323567 L77.7797282,155.323567 Z M229.861268,154.928571 L234.663647,154.928571 L234.663647,132.394996 L232.265572,132.394996 L229.861268,132.394996 L229.861268,154.928571 Z M147.274066,155.323567 C141.039071,155.323567 138.292186,151.988046 138.292186,143.668053 C138.292186,135.335521 140.920725,132.037619 147.274066,132.037619 C153.639864,132.037619 156.262174,135.335521 156.262174,143.668053 C156.262174,152.16987 153.639864,155.323567 147.274066,155.323567 L147.274066,155.323567 Z M151.34145,143.668053 C151.34145,137.680417 150.326161,136.413922 147.274066,136.413922 C144.259343,136.413922 143.212911,137.711766 143.212911,143.668053 C143.212911,149.64315 144.259343,150.966073 147.30521,150.966073 C150.326161,150.966073 151.34145,149.611801 151.34145,143.668053 L151.34145,143.668053 Z M62.2078143,150.665124 L52.9767837,150.665124 L52.9767837,145.317005 L60.3578709,145.317005 L60.3578709,141.354506 L52.9767837,141.354506 L52.9767837,136.714872 L61.7655719,136.714872 L61.6721404,132.394996 L48.2989807,132.394996 L48.2989807,154.928571 L62.0894677,154.928571 L62.2078143,150.665124 Z M94.5101925,145.586605 L101.442809,145.586605 L101.442809,154.928571 L106.12684,154.928571 L106.12684,132.394996 L101.442809,132.394996 L101.442809,141.204031 L94.5101925,141.204031 L94.5101925,132.394996 L89.8261608,132.394996 L89.8261608,154.928571 L94.5101925,154.928571 L94.5101925,145.586605 Z M176.761042,150.545998 L168.520385,150.545998 L168.520385,132.388726 L163.811438,132.388726 L163.811438,154.928571 L176.648924,154.928571 L176.761042,150.545998 Z M247.775198,150.665124 L247.775198,145.317005 L255.156285,145.317005 L255.156285,141.354506 L247.775198,141.354506 L247.775198,136.714872 L256.551529,136.714872 L256.464326,132.394996 L243.091166,132.394996 L243.091166,154.928571 L256.881653,154.928571 L257,150.665124 L247.775198,150.665124 Z M31.4439411,154.928571 L36.1840317,154.928571 L36.1840317,136.808918 L41.6217441,136.808918 L41.5345413,132.394996 L26.1245753,132.394996 L26,136.808918 L31.4439411,136.808918 L31.4439411,154.928571 Z M130.9547,154.928571 L130.9547,132.394996 L126.837486,132.394996 L126.837486,143.630435 L126.893545,146.031759 L126.837486,146.063108 L118.534541,132.394996 L114.50453,132.394996 L114.50453,154.928571 L118.646659,154.928571 L118.646659,143.091234 L118.621744,140.664831 L118.677803,140.627212 L119.929785,142.727587 L127.609853,154.928571 L130.9547,154.928571 Z M116.435447,175.054553 L101.03171,175.054553 L100.913364,179.468475 L106.344847,179.468475 L106.344847,197.594398 L111.091166,197.594398 L111.091166,179.468475 L116.528879,179.468475 L116.435447,175.054553 Z M138.97735,189.939002 L138.97735,175.054553 L134.293318,175.054553 L134.293318,189.876304 C134.293318,192.4908 133.271801,193.569202 130.761608,193.569202 C128.251416,193.569202 127.204983,192.459452 127.204983,189.876304 L127.204983,175.054553 L122.496036,175.054553 L122.496036,189.939002 C122.496036,195.343549 125.323896,197.983124 130.761608,197.983124 C136.19932,197.983124 138.97735,195.343549 138.97735,189.939002 L138.97735,189.939002 Z M94.5288788,184.496836 L87.2100793,184.496836 L87.2100793,179.468475 L95.9614949,179.468475 L95.8992072,175.054553 L82.5260476,175.054553 L82.5260476,197.594398 L87.2100793,197.594398 L87.2100793,188.672507 L94.4665912,188.672507 L94.5288788,184.496836 Z M159.339185,186.296262 L159.401472,188.697586 L159.339185,188.735205 L151.03624,175.054553 L147.006229,175.054553 L147.006229,197.594398 L151.154587,197.594398 L151.154587,185.757061 L151.123443,183.318118 L151.18573,183.293039 L152.443941,185.393414 L160.11778,197.594398 L163.456399,197.594398 L163.456399,175.054553 L159.339185,175.054553 L159.339185,186.296262 Z M34.1908267,193.751025 C32.1851642,193.751025 30.3663647,193.180476 28.6347678,192.252549 L28.0118913,196.396871 C29.7434881,197.418844 31.9546999,197.983124 34.2780294,197.983124 C39.1177803,197.983124 41.9269536,195.343549 41.9269536,190.923356 C41.9269536,183.53129 32.6087203,184.854213 32.6087203,181.249092 C32.6087203,179.982597 33.3250283,179.023321 35.8601359,179.023321 C37.3861835,179.023321 38.9994337,179.32427 40.6687429,179.88855 L41.2106455,175.813196 C39.6596829,175.085902 37.5979615,174.697176 35.5611552,174.697176 C30.3912797,174.697176 28.0928652,177.64397 28.0928652,181.455994 C28.0928652,188.822981 37.4173273,187.531407 37.4173273,191.230575 C37.4173273,192.879527 36.4331823,193.751025 34.1908267,193.751025 L34.1908267,193.751025 Z M52.4535674,197.594398 L57.1998867,197.594398 L57.1998867,179.468475 L62.6375991,179.468475 L62.5503964,175.054553 L47.1404304,175.054553 L47.0220838,179.468475 L52.4535674,179.468475 L52.4535674,197.594398 Z M73.9739524,175.054553 L71.5758777,175.054553 L69.1715742,175.054553 L69.1715742,197.594398 L73.9739524,197.594398 L73.9739524,175.054553 Z M182.634768,193.393648 C182.005663,193.575472 181.295583,193.6319 180.516988,193.6319 C177.078709,193.6319 175.882786,192.158502 175.882786,186.296262 C175.882786,180.521798 177.109853,178.960623 181.114949,178.960623 C182.790487,178.960623 184.603058,179.32427 186.00453,179.88855 L186.484145,175.6878 C184.933182,175.054553 182.790487,174.672097 180.840883,174.672097 C173.94564,174.672097 170.962061,178.302297 170.962061,186.358959 C170.962061,194.233798 173.609287,198.014473 180.635334,198.014473 C182.908834,198.014473 185.319366,197.500352 186.839185,196.785597 L186.839185,185.393414 L182.634768,185.393414 L182.634768,193.393648 Z M140.484711,216.466424 L140.484711,231.15651 L140.54077,233.564104 L140.484711,233.595453 L139.257644,231.495078 L130.381653,216.466424 L127.796716,216.466424 L127.796716,239 L130.325595,239 L130.325595,223.858491 L130.294451,221.425817 L130.362967,221.394469 L131.552661,223.501113 L140.902039,239 L142.957531,239 L142.957531,216.466424 L140.484711,216.466424 Z M114.971687,239 L117.861835,239 L117.861835,216.466424 L116.416761,216.466424 L114.971687,216.466424 L114.971687,239 Z M39.4665912,227.074886 C41.8272933,227.676784 43.2287656,229.388433 43.2287656,232.604828 C43.2287656,236.661373 41.3227633,239 36.5390713,239 L28.9524349,239 L28.9524349,216.466424 L36.2712344,216.466424 C40.3635334,216.466424 42.4252548,218.297199 42.4252548,222.059065 C42.4252548,224.817766 41.2293318,226.378941 39.4665912,227.012188 L39.4665912,227.074886 Z M31.6993205,226.172038 L36.3023783,226.172038 C38.6319366,226.172038 39.6783692,225.037208 39.6783692,222.560647 C39.6783692,219.95242 38.6070215,219.043302 36.1840317,219.043302 L31.6993205,219.043302 L31.6993205,226.172038 Z M36.5764439,236.48582 C39.0243488,236.48582 40.3946772,235.463846 40.3946772,232.391656 C40.3946772,229.626685 39.1426954,228.485585 36.4518686,228.485585 L31.6993205,228.485585 L31.6993205,236.48582 L36.5764439,236.48582 Z M82.3204983,228.811614 L87.6647792,239 L84.319932,239 L79.7168743,229.357084 L75.8052095,229.357084 L75.8052095,239 L72.9711212,239 L72.9711212,216.466424 L79.6919592,216.466424 C84.2015855,216.466424 86.3193658,218.416325 86.3193658,222.836517 C86.3193658,226.378941 84.9116648,228.335111 82.3204983,228.811614 L82.3204983,228.811614 Z M83.3980747,222.955643 C83.3980747,220.008848 82.2582106,219.018223 79.7168743,219.018223 L75.8052095,219.018223 L75.8052095,227.012188 L79.6047565,227.012188 C82.2270668,227.012188 83.3980747,225.990214 83.3980747,222.955643 L83.3980747,222.955643 Z M51.880521,216.466424 L51.880521,239 L64.686863,239 L64.7740657,236.335345 L54.7146093,236.335345 L54.7146093,228.510664 L62.9178935,228.510664 L62.9178935,226.021563 L54.7146093,226.021563 L54.7146093,219.168698 L64.2944507,219.168698 L64.2383918,216.466424 L51.880521,216.466424 Z M98.0979615,216.466424 L98.0979615,236.278917 L107.360136,236.278917 L107.260476,239 L95.2389581,239 L95.2389581,216.466424 L98.0979615,216.466424 Z" id="Fill-1"></path>
                <path d="M14.7014455,108.686729 L113.889521,7.14009452 L3.38593833,74.9617035 L14.7014455,108.686729 Z M152,65.1897441 L137.149175,97.7195937 L47.3595676,82.4981259 L49.76209,80.0272693 L134.261169,94.3508067 L118.383359,6.61372155 L13.4815118,114 L0,73.8408387 L29.9194955,11.6730947 L68.9449245,28.7771199 L66.0009009,30.5853659 L31.295033,15.3700907 L4.58097539,70.8931501 L120.088776,0 L136.701036,91.8366017 L148.209492,66.6326253 L133.22796,60.0560595 L132.617993,56.6934652 L152,65.1897441 Z M76.6504238,32.6165463 L75.1815241,33.5144766 L82.0592113,36.5364767 L83.1173171,35.4527677 L76.6504238,32.6165463 Z M90.268867,38.586235 L89.2107612,39.6637514 L124.924942,55.3310881 L124.619958,53.6405019 L90.268867,38.586235 Z M6.58515212,75.6119289 L8.45239753,74.4724863 L40.2017935,79.3708512 L38.9943082,80.6217611 L6.58515212,75.6119289 Z" id="Fill-3"></path>
            </g>
        </g>
    </g>
</svg>